<svg width="320" height="141" viewBox="0 0 320 141" fill="none" xmlns="http://www.w3.org/2000/svg">
<g clip-path="url(#clip0_296_52)">
<rect width="320" height="141" rx="10" fill="#D8D8D0"/>
<path fill-rule="evenodd" clip-rule="evenodd" d="M30.7531 -76.1349L76.6792 -49.7301L76.6792 -23.3252V3.07964L30.7531 -23.3252V-49.7301V-76.1349Z" fill="#AD6138"/>
<path fill-rule="evenodd" clip-rule="evenodd" d="M30.9093 -24.0797L-15.0168 2.32522H30.9093V-24.0797ZM30.9093 -24.0797L76.8354 2.32522H30.9093V-24.0797ZM30.5969 28.7301L-15.3292 2.32524H30.5969H30.5969H76.523L30.5969 28.7301Z" fill="#A4C0D9"/>
<path fill-rule="evenodd" clip-rule="evenodd" d="M-15.3292 2.3252L30.5969 28.7301L-15.3292 55.1349V28.7301V2.3252ZM30.5969 28.7301L-15.3292 55.135L30.5969 81.5398V55.135V28.7301Z" fill="#AD6138"/>
<path fill-rule="evenodd" clip-rule="evenodd" d="M123.074 -24.0797L77.1478 2.32522H123.074V-24.0797ZM123.074 -24.0797L169 2.32522H123.074V-24.0797ZM122.762 28.7301L76.8354 2.32524H122.761H122.762H168.688L122.762 28.7301Z" fill="#A4C0D9"/>
<path fill-rule="evenodd" clip-rule="evenodd" d="M76.8355 2.3252L122.762 28.7301L122.762 28.7301V55.135V81.5398L76.8354 55.135L76.8355 55.1349V28.7301V2.3252Z" fill="#AD6138"/>
<path fill-rule="evenodd" clip-rule="evenodd" d="M-15.173 54.3806L-61.099 80.7854L-61.4114 80.7854L-15.4854 107.19H-15.4854L30.4407 80.7854L30.7532 80.7854L-15.1729 54.3806V80.7854H-15.173V54.3806Z" fill="#A4C0D9"/>
<path fill-rule="evenodd" clip-rule="evenodd" d="M76.9916 54.3806L31.0656 80.7854L30.7531 80.7854L76.6792 107.19L122.605 80.7854L122.918 80.7854L76.9916 54.3806Z" fill="#A4C0D9"/>
<path fill-rule="evenodd" clip-rule="evenodd" d="M30.7531 80.7854L76.6792 107.19L76.6792 133.595V160L30.7531 133.595V107.19V80.7854Z" fill="#AD6138"/>
<path d="M202.534 70.6387L222.13 68.4985C232.309 67.3866 237.401 62.1307 236.49 53.7963C235.907 48.4521 233.029 45.0966 228.218 44.077C232.279 41.7664 234.167 37.8262 233.618 32.8001C232.735 24.7201 226.467 20.383 216.988 21.4184L197.392 23.5587L202.534 70.6387ZM216.893 30.5708C220.646 30.1609 222.806 31.6632 223.168 34.9715C223.536 38.3435 221.702 40.4109 218.012 40.8139L209.804 41.7104L208.686 31.4673L216.893 30.5708ZM219.466 49.4109C223.219 49.0009 225.443 50.4963 225.79 53.6774C226.172 57.1766 224.388 59.1098 220.57 59.5267L211.854 60.4787L210.749 50.3629L219.466 49.4109ZM253.334 65.9272C258.105 65.406 262.075 62.8479 262.773 59.8101L263.868 63.9396L272.521 62.9946L270.492 44.4171C269.498 35.3192 263.718 30.7356 254.493 31.7432C245.395 32.7369 239.992 38.0912 240.778 45.2804L248.921 44.391C248.608 41.528 250.661 39.6942 254.797 39.2426C258.296 38.8604 260.385 40.3061 260.726 43.4235L260.781 43.9325L251.951 45.6052C244.379 47.0117 240.64 51.0898 241.279 56.943C241.96 63.1779 246.59 66.6638 253.334 65.9272ZM255.977 58.2991C252.987 58.6257 251.469 57.697 251.219 55.4066C250.996 53.3707 252.419 52.2496 256.64 51.4023L261.554 50.4149L261.742 52.1327C262.138 55.7592 259.731 57.8891 255.977 58.2991ZM297.959 28.0258C296.588 27.8536 295.302 27.8653 294.157 27.9904C289.894 28.456 287.324 30.8613 286.329 34.1246L285.305 29.4722L276.08 30.4798L279.548 62.227L289.346 61.1569L287.838 47.351C287.15 41.0525 290.251 38.2029 295.849 37.5914L298.967 37.2509L297.959 28.0258ZM158.664 128.512C170.434 127.227 178.456 119.333 178.964 108.655L168.275 109.822C167.51 114.606 163.56 117.934 157.771 118.566C150.2 119.393 144.887 114.373 143.921 105.529C142.941 96.5585 146.995 90.6434 154.63 89.8095C160.292 89.191 164.592 91.4253 166.506 95.9805L177.385 94.7922C174.768 84.3908 165.57 78.5711 153.8 79.8567C139.74 81.3924 131.444 92.0844 133.049 106.781C134.675 121.668 144.54 130.055 158.664 128.512ZM195.956 123.667L194.052 106.234C193.621 102.29 195.824 99.4738 199.705 99.0499C203.077 98.6816 205.589 101.047 206.026 105.055L207.916 122.36L217.714 121.29L215.567 101.631C214.657 93.2965 209.739 88.9407 202.168 89.7676C198.032 90.2193 194.58 92.206 192.906 95.1571L190.78 75.6889L180.918 76.766L186.158 124.737L195.956 123.667ZM234.438 120.3C239.21 119.779 243.179 117.221 243.878 114.183L244.973 118.313L253.625 117.368L251.596 98.7902C250.602 89.6923 244.822 85.1087 235.597 86.1163C226.499 87.11 221.097 92.4643 221.882 99.6535L230.026 98.7641C229.713 95.9011 231.766 94.0673 235.901 93.6157C239.401 93.2335 241.49 94.6791 241.83 97.7966L241.886 98.3056L233.055 99.9783C225.483 101.385 221.744 105.463 222.383 111.316C223.064 117.551 227.694 121.037 234.438 120.3ZM237.081 112.672C234.091 112.999 232.573 112.07 232.323 109.78C232.101 107.744 233.524 106.623 237.745 105.775L242.658 104.788L242.846 106.506C243.242 110.132 240.835 112.262 237.081 112.672ZM279.064 82.3989C277.693 82.2267 276.407 82.2384 275.261 82.3635C270.999 82.8291 268.429 85.2344 267.433 88.4977L266.41 83.8453L257.185 84.8529L260.652 116.6L270.45 115.53L268.942 101.724C268.254 95.4255 271.355 92.576 276.954 91.9645L280.071 91.624L279.064 82.3989ZM301.587 112.129L299.002 88.4619L305.046 87.8017L304.156 79.6581L298.112 80.3183L297.035 70.4569L287.238 71.5271L288.315 81.3884L282.271 82.0486L283.16 90.1922L289.204 89.532L291.789 113.199L301.587 112.129Z" fill="#3A382E"/>
<path d="M202.534 70.6387L201.54 70.7473L201.649 71.7414L202.643 71.6328L202.534 70.6387ZM228.218 44.077L227.724 43.2078L225.436 44.5095L228.011 45.0553L228.218 44.077ZM197.392 23.5587L197.283 22.5647L196.289 22.6732L196.398 23.6673L197.392 23.5587ZM209.804 41.7104L208.81 41.8189L208.919 42.813L209.913 42.7044L209.804 41.7104ZM208.686 31.4673L208.577 30.4732L207.583 30.5818L207.691 31.5758L208.686 31.4673ZM211.854 60.4787L210.86 60.5873L210.969 61.5814L211.963 61.4728L211.854 60.4787ZM210.749 50.3629L210.641 49.3688L209.647 49.4774L209.755 50.4715L210.749 50.3629ZM202.643 71.6328L222.238 69.4925L222.021 67.5044L202.426 69.6447L202.643 71.6328ZM222.238 69.4925C227.462 68.922 231.534 67.2733 234.185 64.5538C236.863 61.8063 237.966 58.0932 237.484 53.6877L235.496 53.9049C235.925 57.8338 234.938 60.9159 232.753 63.1579C230.54 65.4279 226.977 66.9631 222.021 67.5044L222.238 69.4925ZM237.484 53.6877C237.176 50.8622 236.251 48.4848 234.7 46.6661C233.145 44.8419 231.017 43.6479 228.425 43.0987L228.011 45.0553C230.231 45.5257 231.947 46.5193 233.179 47.9638C234.415 49.4137 235.221 51.3861 235.496 53.9049L237.484 53.6877ZM228.713 44.9462C233.155 42.4185 235.199 38.0723 234.612 32.6915L232.624 32.9086C233.134 37.5801 231.403 41.1143 227.724 43.2078L228.713 44.9462ZM234.612 32.6915C234.143 28.401 232.226 25.0173 229.092 22.8666C225.979 20.7296 221.783 19.8887 216.879 20.4244L217.096 22.4125C221.672 21.9128 225.349 22.7227 227.961 24.5154C230.552 26.2944 232.21 29.1192 232.624 32.9086L234.612 32.6915ZM216.879 20.4244L197.283 22.5647L197.501 24.5528L217.096 22.4125L216.879 20.4244ZM196.398 23.6673L201.54 70.7473L203.528 70.5302L198.386 23.4502L196.398 23.6673ZM217.001 31.5649C218.745 31.3745 219.947 31.6488 220.729 32.1961C221.485 32.7256 222.015 33.6279 222.174 35.0801L224.162 34.863C223.959 33.0069 223.228 31.5038 221.876 30.5575C220.549 29.6291 218.794 29.3572 216.784 29.5768L217.001 31.5649ZM222.174 35.0801C222.335 36.5621 222.004 37.6173 221.362 38.3439C220.707 39.0857 219.594 39.6351 217.903 39.8198L218.12 41.808C220.119 41.5897 221.769 40.9039 222.861 39.6683C223.966 38.4174 224.368 36.753 224.162 34.863L222.174 35.0801ZM217.903 39.8198L209.696 40.7163L209.913 42.7044L218.12 41.808L217.903 39.8198ZM210.798 41.6018L209.68 31.3587L207.691 31.5758L208.81 41.8189L210.798 41.6018ZM208.794 32.4614L217.001 31.5649L216.784 29.5768L208.577 30.4732L208.794 32.4614ZM219.574 50.405C221.317 50.2146 222.544 50.486 223.346 51.0267C224.118 51.5471 224.647 52.4187 224.796 53.786L226.784 53.5688C226.586 51.755 225.829 50.2883 224.464 49.3683C223.129 48.4685 221.368 48.1972 219.357 48.4168L219.574 50.405ZM224.796 53.786C224.967 55.3496 224.64 56.3909 224.012 57.0889C223.365 57.8081 222.241 58.3383 220.462 58.5326L220.679 60.5208C222.717 60.2982 224.395 59.6533 225.498 58.4269C226.621 57.1793 226.996 55.5044 226.784 53.5688L224.796 53.786ZM220.462 58.5326L211.746 59.4846L211.963 61.4728L220.679 60.5208L220.462 58.5326ZM212.848 60.3702L211.743 50.2543L209.755 50.4715L210.86 60.5873L212.848 60.3702ZM210.858 51.357L219.574 50.405L219.357 48.4168L210.641 49.3688L210.858 51.357ZM262.773 59.8101L263.74 59.5538L261.799 59.5861L262.773 59.8101ZM263.868 63.9396L262.901 64.1959L263.122 65.0271L263.977 64.9337L263.868 63.9396ZM272.521 62.9946L272.629 63.9887L273.623 63.8801L273.515 62.886L272.521 62.9946ZM240.778 45.2804L239.783 45.389L239.892 46.3831L240.886 46.2745L240.778 45.2804ZM248.921 44.391L249.03 45.3851L250.024 45.2765L249.915 44.2824L248.921 44.391ZM260.781 43.9325L260.968 44.915L261.876 44.743L261.776 43.8239L260.781 43.9325ZM251.951 45.6052L252.134 46.5884L252.137 46.5877L251.951 45.6052ZM256.64 51.4023L256.837 52.3828L256.837 52.3827L256.64 51.4023ZM261.554 50.4149L262.548 50.3064L262.429 49.2191L261.357 49.4345L261.554 50.4149ZM253.442 66.9213C255.966 66.6456 258.304 65.8297 260.124 64.652C261.93 63.4837 263.32 61.8936 263.748 60.0341L261.799 59.5861C261.528 60.7644 260.584 61.9723 259.038 62.9728C257.506 63.9639 255.473 64.6876 253.225 64.9331L253.442 66.9213ZM261.807 60.0664L262.901 64.1959L264.835 63.6834L263.74 59.5538L261.807 60.0664ZM263.977 64.9337L272.629 63.9887L272.412 62.0005L263.759 62.9456L263.977 64.9337ZM273.515 62.886L271.486 44.3085L269.497 44.5256L271.527 63.1032L273.515 62.886ZM271.486 44.3085C270.968 39.5714 269.186 35.8731 266.2 33.5068C263.216 31.1422 259.178 30.2256 254.384 30.7491L254.601 32.7373C259.033 32.2533 262.497 33.1246 264.958 35.0743C267.416 37.0224 269.021 40.1648 269.497 44.5256L271.486 44.3085ZM254.384 30.7491C249.674 31.2637 245.816 32.9179 243.226 35.4772C240.616 38.056 239.358 41.495 239.783 45.389L241.772 45.1719C241.412 41.8767 242.462 39.0439 244.632 36.8998C246.821 34.7363 250.214 33.2165 254.601 32.7373L254.384 30.7491ZM240.886 46.2745L249.03 45.3851L248.813 43.3969L240.669 44.2864L240.886 46.2745ZM249.915 44.2824C249.791 43.1459 250.126 42.3024 250.852 41.663C251.626 40.9811 252.941 40.4512 254.905 40.2366L254.688 38.2485C252.517 38.4856 250.738 39.0985 249.53 40.162C248.274 41.2682 247.738 42.7731 247.927 44.4995L249.915 44.2824ZM254.905 40.2366C256.514 40.0609 257.638 40.3243 258.371 40.8392C259.082 41.3376 259.584 42.1826 259.732 43.5321L261.72 43.3149C261.527 41.547 260.815 40.1104 259.52 39.2021C258.25 38.3104 256.579 38.042 254.688 38.2485L254.905 40.2366ZM259.732 43.5321L259.787 44.0411L261.776 43.8239L261.72 43.3149L259.732 43.5321ZM260.595 42.95L251.765 44.6227L252.137 46.5877L260.968 44.915L260.595 42.95ZM251.768 44.622C247.855 45.3488 244.801 46.7885 242.805 48.9237C240.783 51.0865 239.937 53.8682 240.285 57.0515L242.273 56.8344C241.981 54.1646 242.685 51.9806 244.266 50.2895C245.873 48.5707 248.474 47.268 252.134 46.5884L251.768 44.622ZM240.285 57.0515C240.651 60.4009 242.093 63.101 244.434 64.8504C246.766 66.5935 249.879 67.3105 253.442 66.9213L253.225 64.9331C250.044 65.2805 247.47 64.6228 245.631 63.2484C243.801 61.8803 242.588 59.72 242.273 56.8344L240.285 57.0515ZM255.868 57.305C254.46 57.4588 253.598 57.2891 253.09 56.9801C252.642 56.7073 252.314 56.2282 252.213 55.298L250.225 55.5152C250.373 56.8754 250.929 58.0059 252.05 58.6884C253.112 59.3346 254.503 59.466 256.086 59.2932L255.868 57.305ZM252.213 55.298C252.171 54.9144 252.213 54.6391 252.302 54.4248C252.39 54.2138 252.552 53.992 252.863 53.7592C253.527 53.2618 254.746 52.8025 256.837 52.3828L256.443 50.4219C254.313 50.8494 252.711 51.3744 251.664 52.1583C251.119 52.5662 250.703 53.0594 250.455 53.6577C250.208 54.2526 250.155 54.8809 250.225 55.5152L252.213 55.298ZM256.837 52.3827L261.751 51.3953L261.357 49.4345L256.443 50.4219L256.837 52.3827ZM260.56 50.5235L260.747 52.2413L262.736 52.0242L262.548 50.3064L260.56 50.5235ZM260.747 52.2413C260.917 53.7942 260.488 54.9235 259.703 55.7203C258.892 56.5438 257.597 57.1162 255.868 57.305L256.086 59.2932C258.111 59.0719 259.896 58.3745 261.128 57.1238C262.386 55.8466 262.962 54.0977 262.736 52.0242L260.747 52.2413ZM297.959 28.0258L298.953 27.9172L298.867 27.132L298.084 27.0336L297.959 28.0258ZM286.329 34.1246L285.352 34.3394L286.172 38.0664L287.285 34.4164L286.329 34.1246ZM285.305 29.4722L286.282 29.2574L286.089 28.3807L285.197 28.4782L285.305 29.4722ZM276.08 30.4798L275.972 29.4858L274.978 29.5943L275.086 30.5884L276.08 30.4798ZM279.548 62.227L278.554 62.3356L278.662 63.3297L279.656 63.2211L279.548 62.227ZM289.346 61.1569L289.454 62.151L290.448 62.0424L290.34 61.0483L289.346 61.1569ZM298.967 37.2509L299.075 38.245L300.069 38.1364L299.961 37.1423L298.967 37.2509ZM298.084 27.0336C296.631 26.8511 295.266 26.8633 294.048 26.9963L294.265 28.9845C295.338 28.8674 296.546 28.8561 297.835 29.018L298.084 27.0336ZM294.048 26.9963C289.395 27.5046 286.486 30.1805 285.372 33.8329L287.285 34.4164C288.162 31.542 290.394 29.4074 294.265 28.9845L294.048 26.9963ZM287.305 33.9099L286.282 29.2574L284.329 29.687L285.352 34.3394L287.305 33.9099ZM285.197 28.4782L275.972 29.4858L276.189 31.4739L285.414 30.4663L285.197 28.4782ZM275.086 30.5884L278.554 62.3356L280.542 62.1185L277.074 30.3713L275.086 30.5884ZM279.656 63.2211L289.454 62.151L289.237 60.1628L279.439 61.2329L279.656 63.2211ZM290.34 61.0483L288.832 47.2424L286.844 47.4596L288.351 61.2655L290.34 61.0483ZM288.832 47.2424C288.506 44.2645 289.094 42.2953 290.236 40.9997C291.394 39.6862 293.284 38.8776 295.958 38.5855L295.741 36.5973C292.816 36.9168 290.356 37.8387 288.736 39.6774C287.099 41.5341 286.481 44.139 286.844 47.4596L288.832 47.2424ZM295.958 38.5855L299.075 38.245L298.858 36.2568L295.741 36.5973L295.958 38.5855ZM299.961 37.1423L298.953 27.9172L296.965 28.1343L297.973 37.3595L299.961 37.1423ZM178.964 108.655L179.963 108.702L180.018 107.534L178.855 107.661L178.964 108.655ZM168.275 109.822L168.167 108.828L167.408 108.911L167.288 109.664L168.275 109.822ZM166.506 95.9805L165.584 96.3678L165.873 97.0555L166.614 96.9746L166.506 95.9805ZM177.385 94.7922L177.494 95.7863L178.635 95.6616L178.355 94.5482L177.385 94.7922ZM158.772 129.506C170.959 128.175 179.428 119.942 179.963 108.702L177.965 108.607C177.484 118.724 169.909 126.278 158.555 127.518L158.772 129.506ZM178.855 107.661L168.167 108.828L168.384 110.816L179.072 109.649L178.855 107.661ZM167.288 109.664C166.61 113.9 163.116 116.977 157.662 117.572L157.879 119.561C164.004 118.892 168.41 115.311 169.263 109.98L167.288 109.664ZM157.662 117.572C154.136 117.957 151.215 116.982 149.055 114.946C146.877 112.894 145.38 109.674 144.915 105.421L142.927 105.638C143.428 110.227 145.07 113.94 147.683 116.402C150.313 118.881 153.834 120.002 157.879 119.561L157.662 117.572ZM144.915 105.421C144.443 101.097 145.197 97.6346 146.871 95.1816C148.53 92.7499 151.172 91.1931 154.738 90.8036L154.521 88.8154C150.453 89.2597 147.25 91.0774 145.219 94.0544C143.202 97.0102 142.419 100.991 142.927 105.638L144.915 105.421ZM154.738 90.8036C157.415 90.5112 159.7 90.9003 161.512 91.8422C163.316 92.7794 164.713 94.2938 165.584 96.3678L167.428 95.5931C166.385 93.112 164.675 91.2317 162.434 90.0675C160.203 88.9081 157.506 88.4893 154.521 88.8154L154.738 90.8036ZM166.614 96.9746L177.494 95.7863L177.277 93.7981L166.397 94.9864L166.614 96.9746ZM178.355 94.5482C175.598 83.5902 165.88 77.5314 153.692 78.8626L153.909 80.8508C165.26 79.6109 173.939 85.1915 176.415 95.0362L178.355 94.5482ZM153.692 78.8626C146.426 79.6562 140.576 82.8291 136.758 87.7724C132.944 92.7118 131.229 99.3285 132.055 106.89L134.043 106.672C133.264 99.537 134.894 93.4593 138.341 88.9947C141.786 84.5339 147.114 81.5929 153.909 80.8508L153.692 78.8626ZM132.055 106.89C132.889 114.529 135.851 120.605 140.522 124.57C145.2 128.541 151.484 130.302 158.772 129.506L158.555 127.518C151.72 128.265 146.009 126.605 141.817 123.046C137.618 119.481 134.835 113.921 134.043 106.672L132.055 106.89ZM195.956 123.667L196.064 124.661L197.058 124.552L196.95 123.558L195.956 123.667ZM207.916 122.36L206.922 122.469L207.031 123.463L208.025 123.354L207.916 122.36ZM217.714 121.29L217.823 122.284L218.817 122.176L218.708 121.181L217.714 121.29ZM192.906 95.1571L191.912 95.2657L192.248 98.3445L193.776 95.6504L192.906 95.1571ZM190.78 75.6889L191.774 75.5803L191.665 74.5862L190.671 74.6948L190.78 75.6889ZM180.918 76.766L180.81 75.7719L179.816 75.8805L179.924 76.8746L180.918 76.766ZM186.158 124.737L185.164 124.845L185.272 125.839L186.266 125.731L186.158 124.737ZM196.95 123.558L195.046 106.126L193.057 106.343L194.962 123.775L196.95 123.558ZM195.046 106.126C194.853 104.364 195.256 102.948 196.048 101.94C196.838 100.934 198.096 100.232 199.814 100.044L199.596 98.0558C197.433 98.2921 195.649 99.2097 194.475 100.704C193.303 102.196 192.819 104.16 193.057 106.343L195.046 106.126ZM199.814 100.044C201.224 99.89 202.399 100.304 203.278 101.137C204.172 101.985 204.833 103.337 205.032 105.164L207.02 104.946C206.782 102.765 205.968 100.931 204.654 99.6855C203.325 98.4262 201.558 97.8416 199.596 98.0558L199.814 100.044ZM205.032 105.164L206.922 122.469L208.911 122.252L207.02 104.946L205.032 105.164ZM208.025 123.354L217.823 122.284L217.606 120.296L207.808 121.366L208.025 123.354ZM218.708 121.181L216.561 101.522L214.573 101.739L216.72 121.399L218.708 121.181ZM216.561 101.522C216.088 97.1893 214.557 93.7544 212.028 91.5151C209.485 89.2636 206.064 88.3362 202.059 88.7736L202.276 90.7617C205.843 90.3722 208.666 91.2092 210.702 93.0125C212.752 94.8279 214.136 97.7381 214.573 101.739L216.561 101.522ZM202.059 88.7736C197.692 89.2505 193.907 91.364 192.036 94.6638L193.776 95.6504C195.252 93.048 198.372 91.1882 202.276 90.7617L202.059 88.7736ZM193.9 95.0485L191.774 75.5803L189.786 75.7975L191.912 95.2657L193.9 95.0485ZM190.671 74.6948L180.81 75.7719L181.027 77.7601L190.888 76.683L190.671 74.6948ZM179.924 76.8746L185.164 124.845L187.152 124.628L181.912 76.6574L179.924 76.8746ZM186.266 125.731L196.064 124.661L195.847 122.672L186.049 123.743L186.266 125.731ZM243.878 114.183L244.844 113.927L242.903 113.959L243.878 114.183ZM244.973 118.313L244.006 118.569L244.226 119.4L245.081 119.307L244.973 118.313ZM253.625 117.368L253.734 118.362L254.728 118.253L254.619 117.259L253.625 117.368ZM221.882 99.6535L220.888 99.7621L220.997 100.756L221.991 100.648L221.882 99.6535ZM230.026 98.7641L230.134 99.7582L231.128 99.6496L231.02 98.6555L230.026 98.7641ZM241.886 98.3056L242.072 99.2881L242.98 99.116L242.88 98.197L241.886 98.3056ZM233.055 99.9783L233.238 100.961L233.242 100.961L233.055 99.9783ZM237.745 105.775L237.941 106.756L237.942 106.756L237.745 105.775ZM242.658 104.788L243.653 104.679L243.534 103.592L242.461 103.808L242.658 104.788ZM234.547 121.294C237.071 121.019 239.408 120.203 241.229 119.025C243.034 117.857 244.425 116.267 244.852 114.407L242.903 113.959C242.632 115.138 241.689 116.345 240.142 117.346C238.61 118.337 236.577 119.061 234.33 119.306L234.547 121.294ZM242.911 114.439L244.006 118.569L245.939 118.056L244.844 113.927L242.911 114.439ZM245.081 119.307L253.734 118.362L253.517 116.374L244.864 117.319L245.081 119.307ZM254.619 117.259L252.59 98.6816L250.602 98.8987L252.631 117.476L254.619 117.259ZM252.59 98.6816C252.073 93.9445 250.291 90.2462 247.305 87.8799C244.32 85.5153 240.282 84.5987 235.489 85.1222L235.706 87.1104C240.137 86.6264 243.602 87.4977 246.062 89.4474C248.521 91.3955 250.126 94.5379 250.602 98.8987L252.59 98.6816ZM235.489 85.1222C230.778 85.6368 226.921 87.291 224.331 89.8503C221.721 92.4291 220.463 95.8681 220.888 99.7621L222.876 99.545C222.516 96.2498 223.567 93.417 225.736 91.2729C227.926 89.1094 231.319 87.5896 235.706 87.1104L235.489 85.1222ZM221.991 100.648L230.134 99.7582L229.917 97.77L221.774 98.6594L221.991 100.648ZM231.02 98.6555C230.896 97.519 231.23 96.6755 231.956 96.0361C232.731 95.3541 234.046 94.8243 236.01 94.6097L235.793 92.6216C233.622 92.8587 231.842 93.4716 230.635 94.5351C229.378 95.6413 228.843 97.1462 229.032 98.8726L231.02 98.6555ZM236.01 94.6097C237.619 94.434 238.742 94.6974 239.476 95.2123C240.186 95.7107 240.689 96.5557 240.836 97.9052L242.824 97.688C242.631 95.9201 241.919 94.4835 240.625 93.5752C239.354 92.6835 237.683 92.4151 235.793 92.6216L236.01 94.6097ZM240.836 97.9052L240.892 98.4142L242.88 98.197L242.824 97.688L240.836 97.9052ZM241.7 97.3231L232.869 98.9958L233.242 100.961L242.072 99.2881L241.7 97.3231ZM232.873 98.9951C228.96 99.7219 225.906 101.162 223.91 103.297C221.888 105.46 221.042 108.241 221.389 111.425L223.377 111.207C223.086 108.538 223.79 106.354 225.371 104.663C226.977 102.944 229.579 101.641 233.238 100.961L232.873 98.9951ZM221.389 111.425C221.755 114.774 223.198 117.474 225.538 119.223C227.871 120.967 230.983 121.684 234.547 121.294L234.33 119.306C231.149 119.654 228.575 118.996 226.736 117.621C224.905 116.253 223.693 114.093 223.377 111.207L221.389 111.425ZM236.973 111.678C235.565 111.832 234.702 111.662 234.195 111.353C233.747 111.08 233.419 110.601 233.317 109.671L231.329 109.888C231.478 111.249 232.034 112.379 233.155 113.061C234.216 113.708 235.608 113.839 237.19 113.666L236.973 111.678ZM233.317 109.671C233.275 109.288 233.317 109.012 233.407 108.798C233.494 108.587 233.656 108.365 233.967 108.132C234.631 107.635 235.85 107.176 237.941 106.756L237.548 104.795C235.418 105.223 233.815 105.747 232.768 106.531C232.224 106.939 231.808 107.432 231.559 108.031C231.312 108.626 231.26 109.254 231.329 109.888L233.317 109.671ZM237.942 106.756L242.855 105.768L242.461 103.808L237.548 104.795L237.942 106.756ZM241.664 104.897L241.852 106.614L243.84 106.397L243.653 104.679L241.664 104.897ZM241.852 106.614C242.022 108.167 241.592 109.297 240.807 110.093C239.996 110.917 238.701 111.489 236.973 111.678L237.19 113.666C239.216 113.445 241.001 112.748 242.232 111.497C243.49 110.22 244.067 108.471 243.84 106.397L241.852 106.614ZM279.064 82.3989L280.058 82.2903L279.972 81.5051L279.188 81.4067L279.064 82.3989ZM267.433 88.4977L266.456 88.7125L267.276 92.4395L268.39 88.7895L267.433 88.4977ZM266.41 83.8453L267.387 83.6305L267.194 82.7538L266.301 82.8512L266.41 83.8453ZM257.185 84.8529L257.076 83.8588L256.082 83.9674L256.191 84.9615L257.185 84.8529ZM260.652 116.6L259.658 116.709L259.767 117.703L260.761 117.594L260.652 116.6ZM270.45 115.53L270.559 116.524L271.553 116.415L271.444 115.421L270.45 115.53ZM280.071 91.624L280.18 92.6181L281.174 92.5095L281.065 91.5154L280.071 91.624ZM279.188 81.4067C277.736 81.2242 276.371 81.2364 275.153 81.3694L275.37 83.3576C276.442 83.2405 277.65 83.2292 278.939 83.3911L279.188 81.4067ZM275.153 81.3694C270.499 81.8777 267.591 84.5536 266.477 88.2059L268.39 88.7895C269.266 85.9151 271.498 83.7805 275.37 83.3576L275.153 81.3694ZM268.41 88.2829L267.387 83.6305L265.433 84.0601L266.456 88.7125L268.41 88.2829ZM266.301 82.8512L257.076 83.8588L257.293 85.847L266.518 84.8394L266.301 82.8512ZM256.191 84.9615L259.658 116.709L261.646 116.492L258.179 84.7444L256.191 84.9615ZM260.761 117.594L270.559 116.524L270.341 114.536L260.544 115.606L260.761 117.594ZM271.444 115.421L269.936 101.616L267.948 101.833L269.456 115.639L271.444 115.421ZM269.936 101.616C269.611 98.6376 270.199 96.6684 271.341 95.3728C272.498 94.0593 274.388 93.2506 277.062 92.9586L276.845 90.9704C273.92 91.2899 271.461 92.2118 269.84 94.0505C268.204 95.9072 267.585 98.5121 267.948 101.833L269.936 101.616ZM277.062 92.9586L280.18 92.6181L279.963 90.6299L276.845 90.9704L277.062 92.9586ZM281.065 91.5154L280.058 82.2903L278.07 82.5074L279.077 91.7326L281.065 91.5154ZM301.587 112.129L301.695 113.123L302.69 113.015L302.581 112.021L301.587 112.129ZM299.002 88.4619L298.893 87.4678L297.899 87.5763L298.008 88.5704L299.002 88.4619ZM305.046 87.8017L305.154 88.7958L306.149 88.6872L306.04 87.6931L305.046 87.8017ZM304.156 79.6581L305.151 79.5496L305.042 78.5555L304.048 78.664L304.156 79.6581ZM298.112 80.3183L297.118 80.4269L297.227 81.421L298.221 81.3124L298.112 80.3183ZM297.035 70.4569L298.029 70.3484L297.921 69.3543L296.927 69.4628L297.035 70.4569ZM287.238 71.5271L287.129 70.533L286.135 70.6416L286.243 71.6357L287.238 71.5271ZM288.315 81.3884L288.423 82.3825L289.417 82.2739L289.309 81.2799L288.315 81.3884ZM282.271 82.0486L282.162 81.0545L281.168 81.1631L281.277 82.1572L282.271 82.0486ZM283.16 90.1922L282.166 90.3007L282.275 91.2948L283.269 91.1862L283.16 90.1922ZM289.204 89.532L290.198 89.4234L290.09 88.4293L289.096 88.5379L289.204 89.532ZM291.789 113.199L290.795 113.308L290.904 114.302L291.898 114.193L291.789 113.199ZM302.581 112.021L299.996 88.3533L298.008 88.5704L300.593 112.238L302.581 112.021ZM299.11 89.4559L305.154 88.7958L304.937 86.8076L298.893 87.4678L299.11 89.4559ZM306.04 87.6931L305.151 79.5496L303.162 79.7667L304.052 87.9103L306.04 87.6931ZM304.048 78.664L298.004 79.3242L298.221 81.3124L304.265 80.6522L304.048 78.664ZM299.106 80.2097L298.029 70.3484L296.041 70.5655L297.118 80.4269L299.106 80.2097ZM296.927 69.4628L287.129 70.533L287.346 72.5212L297.144 71.451L296.927 69.4628ZM286.243 71.6357L287.321 81.497L289.309 81.2799L288.232 71.4185L286.243 71.6357ZM288.206 80.3943L282.162 81.0545L282.379 83.0427L288.423 82.3825L288.206 80.3943ZM281.277 82.1572L282.166 90.3007L284.154 90.0836L283.265 81.94L281.277 82.1572ZM283.269 91.1862L289.313 90.5261L289.096 88.5379L283.051 89.1981L283.269 91.1862ZM288.21 89.6406L290.795 113.308L292.783 113.091L290.198 89.4234L288.21 89.6406ZM291.898 114.193L301.695 113.123L301.478 111.135L291.681 112.205L291.898 114.193Z" fill="#3A382E"/>
</g>
<defs>
<clipPath id="clip0_296_52">
<rect width="320" height="141" rx="10" fill="white"/>
</clipPath>
</defs>
</svg>
