<svg width="100%" height="100%" viewBox="0 0 320 140" fill="none" xmlns="http://www.w3.org/2000/svg">
<g clip-path="url(#clip0_296_54)">
<rect width="320" height="141" rx="10" fill="#D8D8D0"/>
<ellipse cx="78.5" cy="-5" rx="59.5" ry="60" fill="#AD6138"/>
<circle cx="78.5" cy="114.5" r="59.5" fill="#AD6138"/>
<circle cx="198" cy="-5" r="60" fill="#AD6138"/>
<ellipse cx="198" cy="114.5" rx="60" ry="59.5" fill="#AD6138"/>
<path d="M165.796 118.981C179.22 117.515 187.516 106.823 186.015 93.0805C184.486 79.0837 173.823 70.4625 160.017 71.9705L142.203 73.9162L147.345 120.996L165.796 118.981ZM160.042 81.6249C168.567 80.6937 174.163 85.3617 175.136 94.2687C176.088 102.985 171.879 108.659 163.735 109.549L156.61 110.327L153.552 82.3337L160.042 81.6249ZM191.074 100.06C192.172 110.113 200.282 115.987 210.461 114.875C220.577 113.77 227.228 106.284 226.13 96.2315C225.032 86.1793 216.915 80.2415 206.799 81.3464C196.62 82.4582 189.976 90.0082 191.074 100.06ZM200.929 98.9197C200.407 94.1481 203.177 90.6265 207.758 90.1262C212.275 89.6328 215.74 92.4734 216.261 97.245C216.79 102.08 214.02 105.602 209.502 106.095C204.922 106.596 201.457 103.755 200.929 98.9197ZM243.352 110.51L241.448 93.0777C241.017 89.1331 243.22 86.3172 247.101 85.8933C250.473 85.5251 252.985 87.8903 253.423 91.8985L255.313 109.204L265.111 108.133L262.963 88.4743C262.053 80.1399 257.135 75.7841 249.564 76.6111C245.429 77.0628 241.976 79.0494 240.302 82.0005L239.305 78.7617L230.08 79.7693L233.554 111.58L243.352 110.51ZM289.785 73.2481L291.592 89.7897C292.162 95.0067 290.68 97.3574 286.481 97.816C282.473 98.2538 280.441 96.158 279.872 90.9411L278.079 74.5267L268.281 75.5968L270.463 95.574C271.318 103.399 276.299 107.748 283.552 106.956C287.37 106.539 291.119 104.327 292.807 101.503L293.832 104.996L303.057 103.989L299.583 72.1779L289.785 73.2481ZM323.261 101.782L320.676 78.1147L326.72 77.4546L325.831 69.311L319.787 69.9712L318.71 60.1098L308.912 61.18L309.989 71.0413L303.945 71.7015L304.834 79.845L310.878 79.1849L313.463 102.852L323.261 101.782Z" fill="white"/>
<path d="M142.203 73.9162L142.095 72.9221L141.1 73.0307L141.209 74.0248L142.203 73.9162ZM147.345 120.996L146.351 121.105L146.46 122.099L147.454 121.99L147.345 120.996ZM156.61 110.327L155.616 110.436L155.724 111.43L156.718 111.321L156.61 110.327ZM153.552 82.3337L153.444 81.3396L152.45 81.4482L152.558 82.4423L153.552 82.3337ZM165.904 119.975C172.864 119.215 178.548 116.053 182.291 111.249C186.033 106.448 187.785 100.073 187.009 92.9719L185.021 93.189C185.746 99.8307 184.101 105.673 180.713 110.02C177.328 114.364 172.152 117.281 165.687 117.987L165.904 119.975ZM187.009 92.9719C186.219 85.7407 183.059 79.8346 178.25 75.9345C173.44 72.0339 167.05 70.1963 159.909 70.9764L160.126 72.9645C166.79 72.2367 172.635 73.9557 176.99 77.4879C181.346 81.0206 184.282 86.4234 185.021 93.189L187.009 92.9719ZM159.909 70.9764L142.095 72.9221L142.312 74.9103L160.126 72.9645L159.909 70.9764ZM141.209 74.0248L146.351 121.105L148.339 120.888L143.197 73.8076L141.209 74.0248ZM147.454 121.99L165.904 119.975L165.687 117.987L147.237 120.002L147.454 121.99ZM160.15 82.619C164.207 82.1758 167.447 83.073 169.779 85.0244C172.117 86.9806 173.675 90.1069 174.142 94.3773L176.13 94.1602C175.623 89.5235 173.897 85.8624 171.063 83.4906C168.222 81.114 164.401 80.1428 159.933 80.6308L160.15 82.619ZM174.142 94.3773C174.598 98.5602 173.804 101.884 172.044 104.246C170.292 106.598 167.483 108.134 163.627 108.555L163.844 110.543C168.131 110.075 171.498 108.328 173.648 105.441C175.791 102.565 176.625 98.6935 176.13 94.1602L174.142 94.3773ZM163.627 108.555L156.501 109.333L156.718 111.321L163.844 110.543L163.627 108.555ZM157.604 110.219L154.546 82.2251L152.558 82.4423L155.616 110.436L157.604 110.219ZM153.661 83.3278L160.15 82.619L159.933 80.6308L153.444 81.3396L153.661 83.3278ZM190.08 100.169C190.657 105.45 193.088 109.69 196.761 112.453C200.427 115.212 205.262 116.449 210.57 115.869L210.353 113.881C205.481 114.413 201.171 113.269 197.963 110.855C194.762 108.447 192.589 104.723 192.068 99.9518L190.08 100.169ZM210.57 115.869C215.848 115.293 220.285 113.042 223.261 109.558C226.242 106.068 227.701 101.404 227.124 96.1229L225.136 96.3401C225.657 101.111 224.339 105.217 221.74 108.259C219.137 111.307 215.191 113.352 210.353 113.881L210.57 115.869ZM227.124 96.1229C226.547 90.8423 224.115 86.5883 220.451 83.8084C216.792 81.0327 211.971 79.7755 206.691 80.3523L206.908 82.3405C211.743 81.8123 216.039 82.9716 219.242 85.4017C222.439 87.8275 224.615 91.5685 225.136 96.3401L227.124 96.1229ZM206.691 80.3523C201.38 80.9323 196.928 83.2013 193.946 86.7024C190.96 90.209 189.503 94.8883 190.08 100.169L192.068 99.9518C191.547 95.1803 192.863 91.0585 195.469 87.9991C198.079 84.9342 202.039 82.8723 206.908 82.3405L206.691 80.3523ZM201.923 98.8111C201.686 96.6451 202.201 94.8412 203.219 93.536C204.234 92.2332 205.814 91.3445 207.867 91.1203L207.65 89.1321C205.122 89.4082 203.026 90.5304 201.642 92.3064C200.259 94.0799 199.65 96.4227 199.935 99.0283L201.923 98.8111ZM207.867 91.1203C209.884 90.8999 211.602 91.4259 212.869 92.4799C214.138 93.5361 215.031 95.1874 215.267 97.3536L217.256 97.1364C216.971 94.531 215.871 92.3762 214.148 90.9425C212.423 89.5067 210.15 88.859 207.65 89.1321L207.867 91.1203ZM215.267 97.3536C215.508 99.5549 214.992 101.376 213.982 102.688C212.974 103.997 211.411 104.881 209.394 105.101L209.611 107.089C212.111 106.816 214.192 105.693 215.566 103.908C216.938 102.127 217.543 99.7703 217.256 97.1364L215.267 97.3536ZM209.394 105.101C207.341 105.325 205.608 104.799 204.335 103.74C203.06 102.678 202.163 101.012 201.923 98.8111L199.935 99.0283C200.222 101.662 201.322 103.834 203.056 105.277C204.793 106.722 207.083 107.365 209.611 107.089L209.394 105.101ZM243.352 110.51L243.46 111.504L244.455 111.395L244.346 110.401L243.352 110.51ZM255.313 109.204L254.319 109.312L254.427 110.306L255.421 110.198L255.313 109.204ZM265.111 108.133L265.219 109.128L266.213 109.019L266.105 108.025L265.111 108.133ZM240.302 82.0005L239.347 82.2949L240.029 84.51L241.172 82.4938L240.302 82.0005ZM239.305 78.7617L240.261 78.4674L240.017 77.6779L239.196 77.7676L239.305 78.7617ZM230.08 79.7693L229.971 78.7752L228.977 78.8838L229.086 79.8779L230.08 79.7693ZM233.554 111.58L232.56 111.689L232.669 112.683L233.663 112.574L233.554 111.58ZM244.346 110.401L242.442 92.9691L240.454 93.1862L242.358 110.619L244.346 110.401ZM242.442 92.9691C242.25 91.2072 242.652 89.7913 243.444 88.783C244.234 87.7773 245.492 87.075 247.21 86.8874L246.993 84.8993C244.829 85.1355 243.045 86.0532 241.871 87.5475C240.699 89.0393 240.215 91.0035 240.454 93.1862L242.442 92.9691ZM247.21 86.8874C248.62 86.7334 249.795 87.1473 250.674 87.9806C251.569 88.828 252.229 90.1807 252.429 92.0071L254.417 91.7899C254.178 89.6081 253.364 87.7741 252.05 86.5289C250.721 85.2696 248.954 84.685 246.993 84.8993L247.21 86.8874ZM252.429 92.0071L254.319 109.312L256.307 109.095L254.417 91.7899L252.429 92.0071ZM255.421 110.198L265.219 109.128L265.002 107.139L255.204 108.209L255.421 110.198ZM266.105 108.025L263.957 88.3658L261.969 88.5829L264.116 108.242L266.105 108.025ZM263.957 88.3658C263.484 84.0327 261.953 80.5978 259.424 78.3585C256.882 76.107 253.46 75.1796 249.455 75.617L249.673 77.6052C253.239 77.2156 256.062 78.0526 258.098 79.8559C260.149 81.6713 261.532 84.5815 261.969 88.5829L263.957 88.3658ZM249.455 75.617C245.089 76.0939 241.304 78.2074 239.433 81.5073L241.172 82.4938C242.648 79.8914 245.768 78.0316 249.673 77.6052L249.455 75.617ZM241.258 81.7062L240.261 78.4674L238.349 79.0561L239.347 82.2949L241.258 81.7062ZM239.196 77.7676L229.971 78.7752L230.188 80.7634L239.413 79.7558L239.196 77.7676ZM229.086 79.8779L232.56 111.689L234.548 111.472L231.074 79.6607L229.086 79.8779ZM233.663 112.574L243.46 111.504L243.243 109.516L233.446 110.586L233.663 112.574ZM289.785 73.2481L289.677 72.254L288.682 72.3625L288.791 73.3566L289.785 73.2481ZM278.079 74.5267L279.073 74.4181L278.964 73.424L277.97 73.5326L278.079 74.5267ZM268.281 75.5968L268.172 74.6027L267.178 74.7113L267.287 75.7054L268.281 75.5968ZM292.807 101.503L293.766 101.221L293.122 99.026L291.948 100.99L292.807 101.503ZM293.832 104.996L292.873 105.278L293.108 106.081L293.941 105.99L293.832 104.996ZM303.057 103.989L303.166 104.983L304.16 104.874L304.051 103.88L303.057 103.989ZM299.583 72.1779L300.577 72.0693L300.468 71.0752L299.474 71.1838L299.583 72.1779ZM288.791 73.3566L290.598 89.8983L292.586 89.6811L290.779 73.1395L288.791 73.3566ZM290.598 89.8983C290.875 92.4411 290.618 94.0475 289.981 95.051C289.382 95.9937 288.308 96.6105 286.373 96.822L286.59 98.8101C288.853 98.5629 290.62 97.775 291.669 96.1235C292.679 94.5327 292.878 92.3553 292.586 89.6811L290.598 89.8983ZM286.373 96.822C284.564 97.0195 283.404 96.633 282.607 95.8053C281.758 94.9236 281.142 93.3659 280.866 90.8325L278.877 91.0496C279.171 93.7332 279.856 95.8319 281.167 97.1928C282.53 98.6079 284.391 99.0503 286.59 98.8101L286.373 96.822ZM280.866 90.8325L279.073 74.4181L277.085 74.6353L278.877 91.0496L280.866 90.8325ZM277.97 73.5326L268.172 74.6027L268.39 76.5909L278.187 75.5208L277.97 73.5326ZM267.287 75.7054L269.469 95.6826L271.457 95.4654L269.275 75.4882L267.287 75.7054ZM269.469 95.6826C269.916 99.7798 271.459 103.081 273.952 105.251C276.455 107.43 279.804 108.371 283.661 107.95L283.444 105.962C280.047 106.333 277.28 105.496 275.265 103.742C273.24 101.98 271.864 99.1937 271.457 95.4654L269.469 95.6826ZM283.661 107.95C287.731 107.506 291.789 105.155 293.665 102.016L291.948 100.99C290.45 103.498 287.008 105.573 283.444 105.962L283.661 107.95ZM291.847 101.785L292.873 105.278L294.792 104.715L293.766 101.221L291.847 101.785ZM293.941 105.99L303.166 104.983L302.949 102.995L293.724 104.002L293.941 105.99ZM304.051 103.88L300.577 72.0693L298.589 72.2865L302.063 104.097L304.051 103.88ZM299.474 71.1838L289.677 72.254L289.894 74.2421L299.691 73.172L299.474 71.1838ZM323.261 101.782L323.37 102.776L324.364 102.667L324.255 101.673L323.261 101.782ZM320.676 78.1147L320.568 77.1207L319.573 77.2292L319.682 78.2233L320.676 78.1147ZM326.72 77.4546L326.829 78.4487L327.823 78.3401L327.714 77.346L326.72 77.4546ZM325.831 69.311L326.825 69.2024L326.716 68.2084L325.722 68.3169L325.831 69.311ZM319.787 69.9712L318.793 70.0798L318.901 71.0738L319.895 70.9653L319.787 69.9712ZM318.71 60.1098L319.704 60.0012L319.595 59.0072L318.601 59.1157L318.71 60.1098ZM308.912 61.18L308.803 60.1859L307.809 60.2945L307.918 61.2885L308.912 61.18ZM309.989 71.0413L310.098 72.0354L311.092 71.9268L310.983 70.9327L309.989 71.0413ZM303.945 71.7015L303.836 70.7074L302.842 70.816L302.951 71.8101L303.945 71.7015ZM304.834 79.845L303.84 79.9536L303.949 80.9477L304.943 80.8391L304.834 79.845ZM310.878 79.1849L311.873 79.0763L311.764 78.0822L310.77 78.1908L310.878 79.1849ZM313.463 102.852L312.469 102.961L312.578 103.955L313.572 103.846L313.463 102.852ZM324.255 101.673L321.67 78.0062L319.682 78.2233L322.267 101.891L324.255 101.673ZM320.785 79.1088L326.829 78.4487L326.612 76.4605L320.568 77.1207L320.785 79.1088ZM327.714 77.346L326.825 69.2024L324.837 69.4196L325.726 77.5632L327.714 77.346ZM325.722 68.3169L319.678 68.9771L319.895 70.9653L325.939 70.3051L325.722 68.3169ZM320.781 69.8626L319.704 60.0012L317.716 60.2184L318.793 70.0798L320.781 69.8626ZM318.601 59.1157L308.803 60.1859L309.02 62.1741L318.818 61.1039L318.601 59.1157ZM307.918 61.2885L308.995 71.1499L310.983 70.9327L309.906 61.0714L307.918 61.2885ZM309.88 70.0472L303.836 70.7074L304.053 72.6956L310.098 72.0354L309.88 70.0472ZM302.951 71.8101L303.84 79.9536L305.828 79.7365L304.939 71.5929L302.951 71.8101ZM304.943 80.8391L310.987 80.179L310.77 78.1908L304.726 78.851L304.943 80.8391ZM309.884 79.2935L312.469 102.961L314.458 102.744L311.873 79.0763L309.884 79.2935ZM313.572 103.846L323.37 102.776L323.153 100.788L313.355 101.858L313.572 103.846Z" fill="white"/>
</g>
<defs>
<clipPath id="clip0_296_54">
<rect width="320" height="141" rx="10" fill="white"/>
</clipPath>
</defs>
</svg>
